<svg width="249" height="50" viewBox="0 0 249 50" fill="none" xmlns="http://www.w3.org/2000/svg">
<path fill-rule="evenodd" clip-rule="evenodd" d="M43.7852 11.7223L51.5118 0L73.9201 37.4511L66.6844 49.8056L51.7217 25.743L43.7852 11.7223Z" fill="#4BB488"/>
<path fill-rule="evenodd" clip-rule="evenodd" d="M73.9213 37.4509L66.6855 49.8053L80.7748 49.7978L88.1571 37.3613L73.9213 37.4509Z" fill="#357D5F"/>
<path fill-rule="evenodd" clip-rule="evenodd" d="M51.5137 0H66.155L88.1579 37.3616L73.922 37.4511L51.5137 0Z" fill="#70E3B3"/>
<path fill-rule="evenodd" clip-rule="evenodd" d="M0 37.401L22.3047 0.00195312L44.7128 37.4532L37.4771 49.8075L22.5145 25.7449L8.39259 49.8569L0 37.401Z" fill="#4BB488"/>
<path fill-rule="evenodd" clip-rule="evenodd" d="M22.5145 25.7461L8.39258 49.8581L22.5114 49.8038L29.7737 37.4199L22.5145 25.7461Z" fill="#357D5F"/>
<path fill-rule="evenodd" clip-rule="evenodd" d="M44.7123 37.4514L37.4766 49.8057L51.5659 49.7982L58.9483 37.3613L44.7123 37.4514Z" fill="#357D5F"/>
<path fill-rule="evenodd" clip-rule="evenodd" d="M22.3047 0H36.9458L58.9489 37.3612L44.7128 37.4513L22.3047 0Z" fill="#70E3B3"/>
<path d="M99.0232 17.8753H102.343L110.148 36.9393H110.417L118.222 17.8753H121.541V40.8418H118.939V23.3926H118.715L111.538 40.8418H109.026L101.849 23.3926H101.625V40.8418H99.0232V17.8753ZM133.98 41.2006C132.321 41.2006 130.889 40.8343 129.685 40.1017C128.489 39.3615 127.566 38.3298 126.915 37.0066C126.273 35.6758 125.951 34.1283 125.951 32.3639C125.951 30.5996 126.273 29.0445 126.915 27.6989C127.566 26.3457 128.471 25.2916 129.629 24.5365C130.796 23.7739 132.156 23.3926 133.711 23.3926C134.608 23.3926 135.494 23.5422 136.369 23.8412C137.244 24.1402 138.04 24.6262 138.758 25.299C139.475 25.9644 140.047 26.8466 140.473 27.9456C140.899 29.0445 141.113 30.3977 141.113 32.0051V33.1265H127.835V30.8388H138.421C138.421 29.8669 138.227 28.9997 137.838 28.2371C137.457 27.4746 136.911 26.8727 136.201 26.4317C135.498 25.9906 134.668 25.77 133.711 25.77C132.657 25.77 131.745 26.0317 130.975 26.555C130.212 27.0709 129.626 27.7437 129.214 28.5736C128.803 29.4034 128.598 30.2931 128.598 31.2425V32.7676C128.598 34.0685 128.822 35.1712 129.27 36.0758C129.726 36.9729 130.358 37.657 131.166 38.128C131.973 38.5915 132.911 38.8233 133.98 38.8233C134.676 38.8233 135.304 38.7261 135.864 38.5317C136.433 38.3298 136.922 38.0308 137.333 37.6346C137.745 37.2309 138.062 36.73 138.287 36.1319L140.843 36.8496C140.574 37.7168 140.122 38.4794 139.487 39.1373C138.851 39.7877 138.066 40.296 137.132 40.6624C136.197 41.0212 135.147 41.2006 133.98 41.2006ZM152.629 23.6169V25.8597H143.703V23.6169H152.629ZM146.305 19.4901H148.951V35.9076C148.951 36.6552 149.06 37.2159 149.276 37.5897C149.501 37.956 149.785 38.2027 150.129 38.3298C150.48 38.4495 150.85 38.5093 151.239 38.5093C151.53 38.5093 151.77 38.4943 151.957 38.4644C152.144 38.427 152.293 38.3971 152.405 38.3747L152.943 40.7521C152.764 40.8194 152.514 40.8867 152.192 40.9539C151.871 41.0287 151.463 41.0661 150.97 41.0661C150.222 41.0661 149.49 40.9053 148.772 40.5839C148.062 40.2624 147.471 39.7727 147 39.1148C146.536 38.4569 146.305 37.6271 146.305 36.6253V19.4901ZM161.679 41.2455C160.588 41.2455 159.597 41.0399 158.708 40.6287C157.818 40.2101 157.111 39.6082 156.588 38.8233C156.065 38.0308 155.803 37.0739 155.803 35.9524C155.803 34.9656 155.997 34.1657 156.386 33.5526C156.775 32.9321 157.295 32.4462 157.945 32.0948C158.595 31.7434 159.313 31.4817 160.098 31.3098C160.891 31.1304 161.687 30.9883 162.487 30.8837C163.533 30.7491 164.382 30.6482 165.032 30.5809C165.69 30.5061 166.169 30.3828 166.468 30.2108C166.774 30.0389 166.927 29.7398 166.927 29.3137V29.224C166.927 28.1175 166.625 27.2578 166.019 26.6447C165.421 26.0317 164.513 25.7252 163.294 25.7252C162.031 25.7252 161.04 26.0018 160.322 26.555C159.605 27.1082 159.1 27.6989 158.808 28.3268L156.296 27.4297C156.745 26.3831 157.343 25.5682 158.091 24.985C158.846 24.3944 159.668 23.9832 160.558 23.7515C161.455 23.5123 162.337 23.3926 163.204 23.3926C163.758 23.3926 164.393 23.4599 165.111 23.5945C165.836 23.7216 166.535 23.987 167.208 24.3907C167.888 24.7944 168.453 25.4037 168.901 26.2186C169.35 27.0335 169.574 28.125 169.574 29.4931V40.8418H166.927V38.5093H166.793C166.613 38.8831 166.314 39.283 165.896 39.7092C165.477 40.1353 164.92 40.4979 164.225 40.7969C163.53 41.096 162.681 41.2455 161.679 41.2455ZM162.083 38.8681C163.13 38.8681 164.012 38.6625 164.729 38.2513C165.455 37.8402 166 37.3094 166.367 36.6589C166.741 36.0085 166.927 35.3245 166.927 34.6067V32.1845C166.815 32.3191 166.569 32.4424 166.187 32.5546C165.814 32.6592 165.38 32.7527 164.886 32.8349C164.401 32.9097 163.926 32.977 163.462 33.0368C163.006 33.0891 162.636 33.134 162.352 33.1713C161.664 33.2611 161.021 33.4068 160.423 33.6087C159.833 33.8031 159.354 34.0984 158.988 34.4946C158.629 34.8834 158.45 35.4142 158.45 36.087C158.45 37.0066 158.79 37.7018 159.47 38.1728C160.158 38.6364 161.029 38.8681 162.083 38.8681ZM187.323 23.6169C187.189 22.4806 186.643 21.5984 185.686 20.9704C184.729 20.3424 183.555 20.0284 182.165 20.0284C181.148 20.0284 180.258 20.1929 179.496 20.5218C178.741 20.8508 178.15 21.3031 177.724 21.8787C177.305 22.4544 177.096 23.1085 177.096 23.8412C177.096 24.4542 177.242 24.9813 177.533 25.4224C177.832 25.856 178.214 26.2186 178.677 26.5102C179.141 26.7942 179.627 27.0297 180.135 27.2166C180.643 27.3961 181.111 27.5419 181.537 27.654L183.869 28.282C184.467 28.439 185.133 28.6558 185.865 28.9324C186.605 29.209 187.312 29.5866 187.985 30.065C188.665 30.536 189.226 31.1416 189.667 31.8817C190.108 32.6219 190.329 33.5302 190.329 34.6067C190.329 35.8478 190.003 36.9692 189.353 37.971C188.71 38.9728 187.768 39.769 186.527 40.3596C185.293 40.9502 183.794 41.2455 182.03 41.2455C180.385 41.2455 178.961 40.9801 177.757 40.4493C176.561 39.9185 175.619 39.1784 174.932 38.2289C174.251 37.2794 173.866 36.1767 173.776 34.9207H176.647C176.722 35.788 177.014 36.5057 177.522 37.0739C178.038 37.6346 178.688 38.0532 179.473 38.3298C180.266 38.599 181.118 38.7335 182.03 38.7335C183.092 38.7335 184.045 38.5616 184.89 38.2177C185.734 37.8663 186.404 37.3804 186.897 36.7599C187.39 36.1319 187.637 35.3992 187.637 34.5619C187.637 33.7993 187.424 33.1788 186.998 32.7003C186.572 32.2219 186.011 31.8331 185.316 31.5341C184.621 31.235 183.869 30.9734 183.062 30.7491L180.236 29.9417C178.442 29.4258 177.021 28.6894 175.974 27.7325C174.928 26.7756 174.404 25.5233 174.404 23.9758C174.404 22.6899 174.752 21.5685 175.447 20.6115C176.15 19.6471 177.092 18.8995 178.273 18.3687C179.462 17.8304 180.789 17.5613 182.254 17.5613C183.735 17.5613 185.05 17.8267 186.202 18.3575C187.353 18.8808 188.265 19.5985 188.938 20.5106C189.618 21.4227 189.977 22.4581 190.015 23.6169H187.323ZM197.189 30.48V40.8418H194.542V17.8753H197.189V26.3083H197.413C197.817 25.4187 198.422 24.7122 199.23 24.1888C200.045 23.658 201.129 23.3926 202.482 23.3926C203.656 23.3926 204.684 23.6281 205.566 24.0991C206.448 24.5626 207.132 25.2766 207.618 26.241C208.111 27.198 208.358 28.4166 208.358 29.8968V40.8418H205.711V30.0762C205.711 28.7081 205.356 27.6503 204.646 26.9027C203.943 26.1476 202.968 25.77 201.719 25.77C200.852 25.77 200.075 25.9532 199.387 26.3195C198.706 26.6858 198.168 27.2204 197.772 27.9231C197.383 28.6259 197.189 29.4782 197.189 30.48ZM220.197 41.2006C218.642 41.2006 217.278 40.8306 216.104 40.0905C214.938 39.3503 214.026 38.3149 213.368 36.9841C212.717 35.6534 212.392 34.0984 212.392 32.3191C212.392 30.5248 212.717 28.9586 213.368 27.6204C214.026 26.2821 214.938 25.243 216.104 24.5028C217.278 23.7627 218.642 23.3926 220.197 23.3926C221.752 23.3926 223.113 23.7627 224.279 24.5028C225.453 25.243 226.365 26.2821 227.015 27.6204C227.673 28.9586 228.002 30.5248 228.002 32.3191C228.002 34.0984 227.673 35.6534 227.015 36.9841C226.365 38.3149 225.453 39.3503 224.279 40.0905C223.113 40.8306 221.752 41.2006 220.197 41.2006ZM220.197 38.8233C221.379 38.8233 222.35 38.5205 223.113 37.9149C223.876 37.3094 224.44 36.5131 224.806 35.5263C225.173 34.5395 225.356 33.4704 225.356 32.3191C225.356 31.1678 225.173 30.0949 224.806 29.1006C224.44 28.1063 223.876 27.3026 223.113 26.6896C222.35 26.0765 221.379 25.77 220.197 25.77C219.016 25.77 218.044 26.0765 217.282 26.6896C216.519 27.3026 215.955 28.1063 215.588 29.1006C215.222 30.0949 215.039 31.1678 215.039 32.3191C215.039 33.4704 215.222 34.5395 215.588 35.5263C215.955 36.5131 216.519 37.3094 217.282 37.9149C218.044 38.5205 219.016 38.8233 220.197 38.8233ZM232.042 47.3011V23.6169H234.599V26.3532H234.913C235.107 26.0541 235.377 25.6728 235.72 25.2093C236.072 24.7383 236.573 24.3197 237.223 23.9533C237.881 23.5795 238.771 23.3926 239.892 23.3926C241.342 23.3926 242.621 23.7552 243.727 24.4804C244.834 25.2056 245.697 26.2335 246.318 27.5643C246.938 28.895 247.249 30.465 247.249 32.2742C247.249 34.0984 246.938 35.6796 246.318 37.0178C245.697 38.3485 244.838 39.3802 243.739 40.1129C242.64 40.8381 241.372 41.2006 239.937 41.2006C238.83 41.2006 237.945 41.0175 237.279 40.6512C236.614 40.2774 236.102 39.855 235.743 39.384C235.384 38.9055 235.107 38.5093 234.913 38.1953H234.689V47.3011H232.042ZM234.644 32.2294C234.644 33.5302 234.835 34.6778 235.216 35.6721C235.597 36.6589 236.154 37.4327 236.887 37.9934C237.619 38.5466 238.516 38.8233 239.578 38.8233C240.685 38.8233 241.608 38.5317 242.348 37.9486C243.096 37.3579 243.656 36.5655 244.03 35.5712C244.411 34.5694 244.602 33.4554 244.602 32.2294C244.602 31.0182 244.415 29.9267 244.041 28.9548C243.675 27.9755 243.118 27.2017 242.37 26.6335C241.63 26.0579 240.7 25.77 239.578 25.77C238.502 25.77 237.597 26.0429 236.864 26.5887C236.132 27.1269 235.578 27.882 235.205 28.8539C234.831 29.8183 234.644 30.9435 234.644 32.2294Z" fill="white"/>
</svg>
